<?xml version="1.0" encoding="utf-8"?>
<!-- Generator: Adobe Illustrator 27.0.0, SVG Export Plug-In . SVG Version: 6.00 Build 0)  -->
<svg version="1.1" id="Layer_1" xmlns="http://www.w3.org/2000/svg" xmlns:xlink="http://www.w3.org/1999/xlink" x="0px" y="0px"
	 viewBox="0 0 41 36" style="enable-background:new 0 0 41 36;" xml:space="preserve">
<style type="text/css">
	.st0{fill:#142763;}
	.st1{fill:#333333;}
	.st2{opacity:0.52;fill:#142763;}
</style>
<path class="st0" d="M20.5,5.4C27.4,5.3,33,10.9,33.1,18c0.1,6.7-5.5,12.6-12.2,12.6c-7.3,0.1-13-5.4-13-12.5
	C7.8,11.1,13.4,5.5,20.5,5.4z M18.4,6.8c4.3,2.6,6.8,6.2,6.8,11.2c0,5-2.4,8.6-6.7,11.2c3.4,0.8,8.2-0.5,11.1-4.3
	c2.9-3.7,3.1-8.8,0.7-12.8C27.8,8,23.3,6,18.4,6.8z M24.1,18.3c0-0.5-0.1-1-0.1-1.4c-5,0-9.9,0-14.9,0c0,0.5,0,0.9,0,1.4
	C14.1,18.3,19,18.3,24.1,18.3z M24,18.8c-5,0-9.9,0-14.9,0c0.1,0.5,0.1,0.9,0.2,1.4c0.3,0,0.6,0,0.9,0c4.1,0,8.3,0,12.4,0
	C23.9,20.2,23.9,20.2,24,18.8z M23,13.1c-4.2,0-8.3,0-12.4,0c-0.2,0-0.4,0.1-0.5,0.3c-0.2,0.4-0.3,0.7-0.5,1.2c4.7,0,9.2,0,13.9,0
	C23.3,14,23.1,13.6,23,13.1z M23.9,16.4C23.7,15,23.7,15,22.4,15c-4,0-8,0-12,0c-1.1,0-1.3,0.2-1.2,1.4C14.2,16.4,19,16.4,23.9,16.4
	z M9.4,20.6c0,0.2,0.1,0.3,0.1,0.4c0.2,1,0.2,1,1.2,1c3.9,0,7.8,0,11.6,0c1.1,0,1.3-0.2,1.2-1.4C18.9,20.6,14.2,20.6,9.4,20.6z
	 M23.1,22.5c-4.4,0-8.7,0-13.2,0c0.2,0.4,0.4,0.8,0.6,1.1c0.1,0.2,0.3,0.3,0.5,0.3c3.7,0,7.3,0,11,0c0.2,0,0.4-0.1,0.5-0.2
	C22.8,23.3,22.9,22.9,23.1,22.5z M10.4,12.6c4.2,0,8.2,0,12.3,0c-0.5-0.6-0.5-1.4-1.4-1.4c-3.2,0-6.4,0-9.6,0
	c-0.2,0-0.5,0.2-0.6,0.3C10.8,11.8,10.7,12.2,10.4,12.6z M22,24.4c-3.7,0-7.3,0-10.9,0c0.8,1.3,0.8,1.4,2.2,1.4c2.2,0,4.4-0.1,6.5,0
	C21,25.9,21.5,25.3,22,24.4z M11.7,10.7c3.2,0,6.4,0,9.6,0c-0.6-1-1.3-1.5-2.5-1.4c-1.5,0.1-2.9,0.1-4.4,0
	C13.2,9.2,12.4,9.7,11.7,10.7z M12.6,26.2c1.1,1.2,1.6,1.5,3.1,1.5c0.8,0,1.6,0,2.4,0c1.1,0,1.6-0.8,2.5-1.5
	C17.8,26.2,15.3,26.2,12.6,26.2z M13.7,8.7c0,0.1,0,0.1,0.1,0.2c1.9,0,3.7,0,5.6,0c-0.8-0.6-1.7-1.1-2.6-1.5c-0.1-0.1-0.4,0-0.5,0
	C15.4,7.8,14.6,8.3,13.7,8.7z M17.7,28.2c-0.8,0-1.5,0-2.3,0C16.2,28.8,16.9,28.8,17.7,28.2z"/>
</svg>
