<?xml version="1.0" encoding="utf-8"?>
<!-- Generator: Adobe Illustrator 27.0.0, SVG Export Plug-In . SVG Version: 6.00 Build 0)  -->
<svg version="1.1" id="Layer_1" xmlns="http://www.w3.org/2000/svg" xmlns:xlink="http://www.w3.org/1999/xlink" x="0px" y="0px"
	 viewBox="0 0 111.8 31.8" style="enable-background:new 0 0 111.8 31.8;" xml:space="preserve">
<style type="text/css">
	.st0{fill:#142763;}
	.st1{fill:#333333;}
	.st2{opacity:0.52;fill:#142763;}
</style>
<g>
	<g>
		<g>
			<path class="st0" d="M2.9,13.8h0.2c0.1,0.6,0.3,1.1,0.5,1.5c0.2,0.4,0.4,0.8,0.7,1C4.5,16.7,4.7,16.9,5,17
				c0.3,0.1,0.5,0.3,0.8,0.3c0.3,0.1,0.5,0.1,0.8,0.1c0.2,0,0.5,0,0.7,0c0.6,0,1.1-0.1,1.5-0.3c0.4-0.2,0.7-0.4,0.9-0.7
				c0.2-0.3,0.4-0.6,0.5-0.9c0.1-0.3,0.1-0.6,0.1-0.9c0-0.4-0.1-0.7-0.2-1c-0.1-0.3-0.3-0.5-0.6-0.7c-0.2-0.2-0.5-0.4-0.7-0.5
				c-0.3-0.1-0.5-0.2-0.8-0.3L6,11.6c-0.9-0.3-1.6-0.7-2.1-1.1c-0.5-0.5-0.7-1.1-0.7-1.9c0-0.5,0.1-1,0.3-1.4
				c0.2-0.4,0.4-0.8,0.8-1.1C4.6,5.8,5,5.6,5.4,5.4c0.5-0.2,1-0.3,1.5-0.3c0.4,0,0.7,0,1,0.1c0.3,0.1,0.5,0.1,0.7,0.2
				C8.8,5.5,9,5.6,9.1,5.7c0.2,0.1,0.3,0.1,0.5,0.1c0.1,0,0.2,0,0.3-0.1c0.1,0,0.1-0.1,0.2-0.3h0.2v3.1h-0.2
				c-0.1-0.4-0.2-0.8-0.3-1.2c-0.2-0.4-0.4-0.7-0.6-1C8.9,6,8.6,5.8,8.2,5.6C7.8,5.4,7.4,5.3,6.9,5.3c-0.3,0-0.6,0-0.9,0.1
				C5.7,5.5,5.4,5.7,5.1,5.8C4.8,6,4.6,6.3,4.4,6.5C4.2,6.8,4.1,7.2,4.1,7.7c0,0.4,0.1,0.7,0.2,0.9c0.1,0.3,0.3,0.5,0.6,0.6
				c0.2,0.2,0.5,0.3,0.8,0.4C6,9.8,6.3,9.9,6.6,10l2,0.6c0.2,0.1,0.5,0.2,0.8,0.3c0.3,0.1,0.6,0.3,1,0.5c0.3,0.2,0.6,0.5,0.8,0.9
				c0.2,0.4,0.3,0.8,0.3,1.4c0,0.5-0.1,1-0.3,1.5c-0.2,0.5-0.5,0.9-0.9,1.3C10,16.9,9.5,17.2,9,17.4c-0.5,0.2-1.1,0.3-1.8,0.3
				c-0.2,0-0.4,0-0.6,0c-0.2,0-0.4,0-0.5,0c-0.2,0-0.3,0-0.5-0.1c-0.2,0-0.3-0.1-0.5-0.1c-0.2-0.1-0.5-0.1-0.7-0.2
				c-0.3-0.1-0.5-0.1-0.7-0.1c-0.2,0-0.3,0-0.3,0.1c-0.1,0.1-0.1,0.2-0.2,0.3H2.9V13.8z"/>
			<path class="st0" d="M23.1,17.3c-0.1,0.1-0.3,0.2-0.5,0.3c-0.2,0.1-0.5,0.1-0.7,0.1c-0.5,0-0.9-0.1-1.2-0.3
				c-0.2-0.2-0.4-0.6-0.5-1h0c0,0.1-0.1,0.2-0.2,0.4c-0.1,0.2-0.2,0.3-0.4,0.4c-0.2,0.1-0.4,0.3-0.7,0.4c-0.3,0.1-0.6,0.1-1,0.1
				c-0.5,0-0.9-0.1-1.1-0.2c-0.3-0.1-0.5-0.2-0.7-0.4c-0.2-0.2-0.3-0.3-0.3-0.5c-0.1-0.2-0.1-0.4-0.1-0.6c0-0.4,0.1-0.7,0.2-0.9
				c0.2-0.2,0.4-0.4,0.6-0.6c0.3-0.1,0.5-0.3,0.8-0.3c0.3-0.1,0.6-0.2,0.9-0.3c0.4-0.1,0.7-0.2,0.9-0.3c0.2-0.1,0.4-0.2,0.6-0.3
				c0.1-0.1,0.2-0.3,0.3-0.5c0.1-0.2,0.1-0.5,0.1-0.8c0-0.3,0-0.5-0.1-0.7c0-0.2-0.1-0.4-0.2-0.6c-0.1-0.2-0.2-0.3-0.4-0.3
				c-0.2-0.1-0.4-0.1-0.7-0.1c-0.4,0-0.7,0.1-0.9,0.2c-0.2,0.1-0.4,0.3-0.4,0.6c0,0.2,0,0.4,0.1,0.6c0,0.2,0.1,0.3,0.1,0.4
				c0,0.2-0.1,0.3-0.2,0.4c-0.1,0.1-0.3,0.2-0.5,0.2c-0.4,0-0.6-0.1-0.7-0.2c-0.1-0.1-0.1-0.3-0.1-0.5c0-0.2,0.1-0.5,0.2-0.7
				c0.1-0.2,0.3-0.4,0.5-0.6c0.2-0.2,0.5-0.3,0.8-0.4C18,10,18.4,10,18.8,10c0.5,0,1,0.1,1.3,0.2c0.3,0.1,0.6,0.3,0.8,0.5
				c0.2,0.2,0.4,0.5,0.5,0.7c0.1,0.3,0.1,0.6,0.1,0.9v4.2c0,0.3,0.1,0.5,0.2,0.7c0.1,0.1,0.2,0.2,0.4,0.2c0.1,0,0.3,0,0.4-0.1
				c0.1,0,0.3-0.1,0.4-0.2L23.1,17.3z M20.1,13.3L20.1,13.3c-0.1,0.1-0.2,0.3-0.6,0.4l-1.3,0.5c-0.4,0.1-0.6,0.4-0.8,0.6
				c-0.2,0.3-0.3,0.6-0.3,1c0,0.2,0,0.3,0.1,0.5c0,0.2,0.1,0.3,0.2,0.5c0.1,0.1,0.2,0.3,0.4,0.3c0.2,0.1,0.4,0.1,0.6,0.1
				c0.4,0,0.7-0.1,0.9-0.2c0.2-0.2,0.4-0.4,0.5-0.6c0.1-0.2,0.2-0.5,0.2-0.8c0-0.3,0.1-0.5,0.1-0.8V13.3z"/>
			<path class="st0" d="M25.6,17.2h1.3v-6.8h-1.3v-0.2h2.8v7h1.3v0.2h-4.1V17.2z M26.7,6.3c0-0.2,0.1-0.5,0.3-0.6
				c0.2-0.2,0.4-0.3,0.6-0.3c0.2,0,0.5,0.1,0.6,0.3c0.2,0.2,0.3,0.4,0.3,0.6c0,0.2-0.1,0.5-0.3,0.6c-0.2,0.2-0.4,0.3-0.6,0.3
				c-0.2,0-0.5-0.1-0.6-0.3C26.8,6.7,26.7,6.5,26.7,6.3z"/>
			<path class="st0" d="M32.7,17.2H34V5.5h-1.3V5.3h2.8v12h1.3v0.2h-4.1V17.2z"/>
			<path class="st0" d="M40,13.8c0-0.6,0.1-1.1,0.4-1.5c0.2-0.5,0.6-0.9,0.9-1.2c0.4-0.3,0.8-0.6,1.3-0.8c0.5-0.2,0.9-0.3,1.4-0.3
				c0.5,0,0.9,0.1,1.4,0.3c0.5,0.2,0.9,0.5,1.3,0.8c0.4,0.3,0.7,0.8,0.9,1.2c0.2,0.5,0.4,1,0.4,1.5c0,0.5-0.1,1-0.3,1.5
				c-0.2,0.5-0.5,0.9-0.9,1.2c-0.4,0.4-0.8,0.6-1.3,0.8c-0.5,0.2-1,0.3-1.5,0.3c-0.5,0-1-0.1-1.5-0.3c-0.5-0.2-0.9-0.5-1.3-0.8
				c-0.4-0.3-0.7-0.8-0.9-1.2C40.1,14.9,40,14.4,40,13.8z M41.7,13.8c0,0.8,0.1,1.4,0.2,1.9c0.1,0.5,0.3,0.8,0.5,1.1
				c0.2,0.3,0.4,0.4,0.7,0.5c0.3,0.1,0.6,0.1,0.9,0.1c0.3,0,0.6,0,0.9-0.1c0.3-0.1,0.5-0.2,0.7-0.5c0.2-0.3,0.4-0.6,0.5-1.1
				c0.1-0.5,0.2-1.1,0.2-1.9c0-0.7,0-1.2-0.1-1.7c-0.1-0.5-0.2-0.8-0.4-1.1c-0.2-0.3-0.4-0.5-0.7-0.6c-0.3-0.1-0.6-0.2-1-0.2
				c-0.4,0-0.7,0.1-1,0.2c-0.3,0.1-0.5,0.3-0.7,0.6c-0.2,0.3-0.3,0.7-0.4,1.1C41.7,12.6,41.7,13.2,41.7,13.8z"/>
			<path class="st0" d="M51.1,17.2h1.3v-6.8h-1.3v-0.2h2.7v1.7h0c0-0.2,0.1-0.4,0.2-0.6c0.1-0.2,0.2-0.4,0.4-0.6
				c0.2-0.2,0.4-0.4,0.7-0.5c0.3-0.1,0.6-0.2,0.9-0.2c0.3,0,0.5,0,0.7,0.1c0.2,0.1,0.3,0.2,0.5,0.3c0.1,0.1,0.2,0.3,0.3,0.4
				c0.1,0.2,0.1,0.3,0.1,0.5c0,0.4-0.1,0.6-0.3,0.7c-0.2,0.1-0.4,0.2-0.6,0.2c-0.5,0-0.7-0.2-0.7-0.5c0-0.1,0-0.2,0-0.2
				c0-0.1,0-0.1,0.1-0.2c0-0.1,0.1-0.1,0.1-0.2c0-0.1,0-0.2,0-0.3c0-0.4-0.2-0.5-0.6-0.5c-0.2,0-0.4,0.1-0.6,0.2
				c-0.2,0.1-0.4,0.3-0.6,0.6c-0.2,0.3-0.3,0.6-0.4,0.9c-0.1,0.4-0.2,0.8-0.2,1.3v3.9h1.5v0.2h-4.2V17.2z"/>
			<path class="st0" d="M60.1,17.2h1.9V5.6h-1.9V5.4h3.8l3.1,9.1h0l3.1-9.1h3.7v0.2H72v11.6h1.9v0.2h-5.5v-0.2h1.9V5.8h0l-4,11.7
				l-4-11.6h0v11.4h1.9v0.2h-4V17.2z"/>
			<path class="st0" d="M77.1,13.8c0-0.6,0.1-1.1,0.4-1.5c0.2-0.5,0.6-0.9,0.9-1.2c0.4-0.3,0.8-0.6,1.3-0.8c0.5-0.2,0.9-0.3,1.4-0.3
				c0.5,0,0.9,0.1,1.4,0.3c0.5,0.2,0.9,0.5,1.3,0.8c0.4,0.3,0.7,0.8,0.9,1.2c0.2,0.5,0.4,1,0.4,1.5c0,0.5-0.1,1-0.3,1.5
				c-0.2,0.5-0.5,0.9-0.9,1.2c-0.4,0.4-0.8,0.6-1.3,0.8c-0.5,0.2-1,0.3-1.5,0.3c-0.5,0-1-0.1-1.5-0.3c-0.5-0.2-0.9-0.5-1.3-0.8
				c-0.4-0.3-0.7-0.8-0.9-1.2C77.3,14.9,77.1,14.4,77.1,13.8z M78.8,13.8c0,0.8,0.1,1.4,0.2,1.9c0.1,0.5,0.3,0.8,0.5,1.1
				c0.2,0.3,0.4,0.4,0.7,0.5c0.3,0.1,0.6,0.1,0.9,0.1c0.3,0,0.6,0,0.9-0.1c0.3-0.1,0.5-0.2,0.7-0.5c0.2-0.3,0.4-0.6,0.5-1.1
				c0.1-0.5,0.2-1.1,0.2-1.9c0-0.7,0-1.2-0.1-1.7c-0.1-0.5-0.2-0.8-0.4-1.1c-0.2-0.3-0.4-0.5-0.7-0.6c-0.3-0.1-0.6-0.2-1-0.2
				c-0.4,0-0.7,0.1-1,0.2c-0.3,0.1-0.5,0.3-0.7,0.6c-0.2,0.3-0.3,0.7-0.4,1.1C78.9,12.6,78.8,13.2,78.8,13.8z"/>
			<path class="st0" d="M99.4,17.2h1.3v-6.8h-1.3v-0.2h2.7V12h0c0.1-0.1,0.2-0.3,0.3-0.6c0.1-0.2,0.3-0.4,0.5-0.7
				c0.2-0.2,0.5-0.4,0.8-0.6c0.3-0.2,0.8-0.2,1.2-0.2c0.7,0,1.4,0.2,1.8,0.5c0.5,0.4,0.7,0.9,0.7,1.7v4.9h1.3v0.2h-4.1v-0.2h1.3
				v-5.5c0-0.4-0.1-0.8-0.3-1.1c-0.2-0.3-0.5-0.4-1-0.4c-0.4,0-0.7,0.1-1,0.2c-0.3,0.2-0.6,0.4-0.9,0.7c-0.2,0.3-0.4,0.6-0.6,1
				c-0.1,0.4-0.2,0.8-0.2,1.3v3.8h1.3v0.2h-4.1V17.2z"/>
		</g>
		<path class="st0" d="M92.5,9.9c2.2,0,3.9,1.7,3.9,3.9c0,2.1-1.7,3.9-3.8,4c-2.3,0-4.1-1.7-4.1-3.9C88.6,11.7,90.3,9.9,92.5,9.9z
			 M91.9,10.3c1.4,0.8,2.1,1.9,2.1,3.5c0,1.6-0.8,2.7-2.1,3.5c1.1,0.3,2.6-0.1,3.5-1.3c0.9-1.2,1-2.8,0.2-4
			C94.8,10.7,93.4,10.1,91.9,10.3z M93.7,13.9c0-0.2,0-0.3,0-0.4c-1.6,0-3.1,0-4.7,0c0,0.2,0,0.3,0,0.4
			C90.5,13.9,92.1,13.9,93.7,13.9z M93.6,14.1c-1.6,0-3.1,0-4.7,0c0,0.1,0,0.3,0.1,0.4c0.1,0,0.2,0,0.3,0c1.3,0,2.6,0,3.9,0
			C93.6,14.5,93.6,14.5,93.6,14.1z M93.3,12.3c-1.3,0-2.6,0-3.9,0c-0.1,0-0.1,0-0.1,0.1c-0.1,0.1-0.1,0.2-0.1,0.4c1.5,0,2.9,0,4.4,0
			C93.4,12.6,93.4,12.5,93.3,12.3z M93.6,13.4c-0.1-0.4-0.1-0.4-0.5-0.4c-1.3,0-2.5,0-3.8,0C89,12.9,89,13,89,13.4
			C90.5,13.4,92.1,13.4,93.6,13.4z M89.1,14.7c0,0.1,0,0.1,0,0.1c0.1,0.3,0.1,0.3,0.4,0.3c1.2,0,2.4,0,3.7,0c0.3,0,0.4-0.1,0.4-0.4
			C92,14.7,90.6,14.7,89.1,14.7z M93.4,15.3c-1.4,0-2.7,0-4.1,0c0.1,0.1,0.1,0.2,0.2,0.3c0,0,0.1,0.1,0.2,0.1c1.1,0,2.3,0,3.4,0
			c0.1,0,0.1,0,0.2-0.1C93.2,15.5,93.3,15.4,93.4,15.3z M89.4,12.2c1.3,0,2.6,0,3.9,0c-0.2-0.2-0.2-0.4-0.4-0.4c-1,0-2,0-3,0
			c-0.1,0-0.1,0-0.2,0.1C89.5,11.9,89.5,12,89.4,12.2z M93,15.9c-1.2,0-2.3,0-3.4,0c0.2,0.4,0.3,0.4,0.7,0.4c0.7,0,1.4,0,2.1,0
			C92.7,16.3,92.9,16.2,93,15.9z M89.8,11.6c1,0,2,0,3,0c-0.2-0.3-0.4-0.5-0.8-0.4c-0.5,0-0.9,0-1.4,0C90.2,11.1,90,11.3,89.8,11.6z
			 M90.1,16.4c0.3,0.4,0.5,0.5,1,0.5c0.3,0,0.5,0,0.8,0c0.3,0,0.5-0.2,0.8-0.5C91.7,16.4,90.9,16.4,90.1,16.4z M90.4,10.9
			C90.4,11,90.4,11,90.4,10.9c0.6,0,1.2,0,1.8,0c-0.3-0.2-0.5-0.3-0.8-0.5c0,0-0.1,0-0.2,0C90.9,10.7,90.7,10.8,90.4,10.9z
			 M91.7,17.1c-0.2,0-0.5,0-0.7,0C91.2,17.3,91.4,17.3,91.7,17.1z"/>
	</g>
	<g>
		<path class="st1" d="M37.1,25.9c0.1,0.1,0.2,0.3,0.3,0.3c0.1,0.1,0.3,0.1,0.5,0.1c0.1,0,0.2,0,0.3,0s0.2-0.1,0.2-0.1
			s0.1-0.1,0.2-0.2c0-0.1,0.1-0.2,0.1-0.3c0-0.1,0-0.2-0.1-0.3s-0.1-0.1-0.2-0.2c-0.1-0.1-0.2-0.1-0.3-0.1s-0.2-0.1-0.3-0.1
			c-0.1,0-0.2-0.1-0.3-0.1s-0.2-0.1-0.3-0.2c-0.1-0.1-0.2-0.2-0.2-0.3c-0.1-0.1-0.1-0.2-0.1-0.4c0-0.2,0-0.3,0.1-0.4
			c0.1-0.1,0.1-0.2,0.2-0.3c0.1-0.1,0.2-0.1,0.4-0.2c0.1,0,0.3-0.1,0.4-0.1c0.2,0,0.4,0,0.5,0.1c0.2,0.1,0.3,0.2,0.4,0.3l-0.3,0.2
			c-0.1-0.1-0.2-0.2-0.3-0.3c-0.1-0.1-0.2-0.1-0.4-0.1c-0.1,0-0.2,0-0.3,0c-0.1,0-0.2,0.1-0.2,0.1c-0.1,0.1-0.1,0.1-0.2,0.2
			s-0.1,0.2-0.1,0.3c0,0.2,0,0.3,0.1,0.4c0.1,0.1,0.2,0.2,0.3,0.2s0.3,0.1,0.4,0.1s0.3,0.1,0.4,0.2c0.1,0.1,0.2,0.2,0.3,0.3
			c0.1,0.1,0.1,0.3,0.1,0.5c0,0.2,0,0.3-0.1,0.4c-0.1,0.1-0.1,0.2-0.2,0.3c-0.1,0.1-0.2,0.1-0.3,0.2c-0.1,0-0.3,0.1-0.4,0.1
			c-0.2,0-0.4,0-0.6-0.1c-0.2-0.1-0.4-0.2-0.5-0.4L37.1,25.9z"/>
		<path class="st1" d="M42.6,23.4h-1.2v-0.3h2.7v0.3h-1.2v3.2h-0.3V23.4z"/>
		<path class="st1" d="M46.4,24.8c0-0.3,0-0.5,0.1-0.7c0.1-0.2,0.2-0.4,0.4-0.6c0.2-0.2,0.3-0.3,0.6-0.4S48,23,48.2,23
			s0.5,0,0.7,0.1s0.4,0.2,0.6,0.4c0.2,0.2,0.3,0.4,0.4,0.6c0.1,0.2,0.1,0.5,0.1,0.7s0,0.5-0.1,0.7c-0.1,0.2-0.2,0.4-0.4,0.6
			c-0.2,0.2-0.3,0.3-0.6,0.4c-0.2,0.1-0.5,0.1-0.7,0.1s-0.5,0-0.7-0.1c-0.2-0.1-0.4-0.2-0.6-0.4c-0.2-0.2-0.3-0.4-0.4-0.6
			C46.5,25.3,46.4,25.1,46.4,24.8z M46.8,24.8c0,0.2,0,0.4,0.1,0.6s0.2,0.3,0.3,0.5s0.3,0.2,0.5,0.3c0.2,0.1,0.4,0.1,0.6,0.1
			s0.4,0,0.6-0.1s0.3-0.2,0.5-0.3s0.2-0.3,0.3-0.5s0.1-0.4,0.1-0.6c0-0.2,0-0.4-0.1-0.6c-0.1-0.2-0.2-0.3-0.3-0.5s-0.3-0.2-0.5-0.3
			s-0.4-0.1-0.6-0.1s-0.4,0-0.6,0.1c-0.2,0.1-0.3,0.2-0.5,0.3s-0.2,0.3-0.3,0.5C46.8,24.4,46.8,24.6,46.8,24.8z"/>
		<path class="st1" d="M52.8,23.1h0.9c0,0,0.1,0,0.2,0c0.1,0,0.2,0,0.3,0s0.2,0,0.3,0.1s0.2,0.1,0.3,0.2c0.1,0.1,0.1,0.2,0.2,0.3
			c0,0.1,0.1,0.2,0.1,0.4c0,0.2,0,0.3-0.1,0.4c-0.1,0.1-0.1,0.2-0.2,0.3c-0.1,0.1-0.2,0.1-0.3,0.2s-0.2,0.1-0.3,0.1l1,1.7h-0.4
			l-1-1.7h-0.6v1.7h-0.3V23.1z M53.2,24.6h0.7c0.2,0,0.3,0,0.4-0.1c0.1,0,0.2-0.1,0.2-0.2c0.1-0.1,0.1-0.1,0.1-0.2
			c0-0.1,0-0.1,0-0.2s0-0.1,0-0.2c0-0.1-0.1-0.1-0.1-0.2c-0.1-0.1-0.1-0.1-0.2-0.2c-0.1,0-0.2-0.1-0.4-0.1h-0.7V24.6z"/>
		<path class="st1" d="M57.8,23.1h2.1v0.3h-1.8v1.2h1.7v0.3h-1.7v1.4H60v0.3h-2.2V23.1z"/>
		<path class="st1" d="M62.7,26.4c0-0.1,0-0.1,0.1-0.2s0.1-0.1,0.2-0.1c0.1,0,0.1,0,0.2,0.1s0.1,0.1,0.1,0.2s0,0.1-0.1,0.2
			S63,26.6,63,26.6c-0.1,0-0.1,0-0.2-0.1S62.7,26.4,62.7,26.4z"/>
		<path class="st1" d="M69,26c-0.2,0.2-0.4,0.4-0.6,0.5c-0.2,0.1-0.5,0.1-0.7,0.1c-0.3,0-0.5,0-0.7-0.1c-0.2-0.1-0.4-0.2-0.6-0.4
			c-0.2-0.2-0.3-0.4-0.4-0.6c-0.1-0.2-0.1-0.5-0.1-0.7s0-0.5,0.1-0.7c0.1-0.2,0.2-0.4,0.4-0.6c0.2-0.2,0.3-0.3,0.6-0.4
			s0.5-0.1,0.7-0.1c0.2,0,0.5,0,0.7,0.1s0.4,0.2,0.5,0.4l-0.3,0.2c-0.1-0.2-0.2-0.3-0.4-0.4c-0.2-0.1-0.3-0.1-0.5-0.1
			c-0.2,0-0.4,0-0.6,0.1c-0.2,0.1-0.3,0.2-0.5,0.3s-0.2,0.3-0.3,0.5c-0.1,0.2-0.1,0.4-0.1,0.6c0,0.2,0,0.4,0.1,0.6s0.2,0.3,0.3,0.5
			s0.3,0.2,0.5,0.3c0.2,0.1,0.4,0.1,0.6,0.1c0.1,0,0.2,0,0.3,0c0.1,0,0.2-0.1,0.3-0.1c0.1,0,0.2-0.1,0.3-0.2
			c0.1-0.1,0.2-0.1,0.2-0.2L69,26z"/>
		<path class="st1" d="M71.5,24.8c0-0.3,0-0.5,0.1-0.7c0.1-0.2,0.2-0.4,0.4-0.6c0.2-0.2,0.3-0.3,0.6-0.4S73,23,73.3,23
			s0.5,0,0.7,0.1s0.4,0.2,0.6,0.4c0.2,0.2,0.3,0.4,0.4,0.6c0.1,0.2,0.1,0.5,0.1,0.7s0,0.5-0.1,0.7c-0.1,0.2-0.2,0.4-0.4,0.6
			c-0.2,0.2-0.3,0.3-0.6,0.4c-0.2,0.1-0.5,0.1-0.7,0.1s-0.5,0-0.7-0.1c-0.2-0.1-0.4-0.2-0.6-0.4c-0.2-0.2-0.3-0.4-0.4-0.6
			C71.5,25.3,71.5,25.1,71.5,24.8z M71.8,24.8c0,0.2,0,0.4,0.1,0.6s0.2,0.3,0.3,0.5s0.3,0.2,0.5,0.3c0.2,0.1,0.4,0.1,0.6,0.1
			s0.4,0,0.6-0.1s0.3-0.2,0.5-0.3s0.2-0.3,0.3-0.5s0.1-0.4,0.1-0.6c0-0.2,0-0.4-0.1-0.6c-0.1-0.2-0.2-0.3-0.3-0.5s-0.3-0.2-0.5-0.3
			s-0.4-0.1-0.6-0.1s-0.4,0-0.6,0.1c-0.2,0.1-0.3,0.2-0.5,0.3s-0.2,0.3-0.3,0.5C71.8,24.4,71.8,24.6,71.8,24.8z"/>
	</g>
</g>
</svg>
